<?xml version="1.0" encoding="UTF-8"?> <svg xmlns="http://www.w3.org/2000/svg" viewBox="0 0 787.47 97.75"><defs><style>.cls-1{fill:#fff;}</style></defs><g id="Camada_2" data-name="Camada 2"><g id="Camada_1-2" data-name="Camada 1"><path class="cls-1" d="M19.1,30.33C10.3,30.33,0,36.41,0,48.87S10.3,67.42,19.1,67.42s19.1-6.08,19.1-18.55S27.89,30.33,19.1,30.33Zm0,31.51c-6.13,0-13.27-4.27-13.27-13s7.14-13,13.27-13,13.27,4.22,13.27,13S25.23,61.84,19.1,61.84Z"></path><path class="cls-1" d="M59.51,31.13H41.72V66.62H47.8V53.9H59.51a10.31,10.31,0,0,0,8.15-3.57,12.62,12.62,0,0,0,0-15.63A10.28,10.28,0,0,0,59.51,31.13Zm4.83,11.41A6.69,6.69,0,0,1,63,46.62a4.79,4.79,0,0,1-3.91,1.85H47.8V36.56H59.11A4.77,4.77,0,0,1,63,38.42,6.7,6.7,0,0,1,64.34,42.54Z"></path><path class="cls-1" d="M77.46,58.78a3.86,3.86,0,0,0-3.93,3.88,3.94,3.94,0,0,0,1.14,2.81,3.94,3.94,0,0,0,5.56-5.57A3.85,3.85,0,0,0,77.46,58.78Z"></path><polygon class="cls-1" points="79.41 53.91 80.77 31.15 74.01 31.15 75.37 53.91 79.41 53.91"></polygon><path class="cls-1" d="M109.79,49.08a13.7,13.7,0,0,0-3.67-1.83c-1.31-.43-2.66-.81-4-1.13s-2.71-.62-4-.88a20.73,20.73,0,0,1-3.39-1,6.42,6.42,0,0,1-2.25-1.44,2.91,2.91,0,0,1-.74-2.1,4.92,4.92,0,0,1,.55-2.46,4.43,4.43,0,0,1,1.49-1.55A7.07,7.07,0,0,1,96,35.83a13.24,13.24,0,0,1,2.68-.27,9,9,0,0,1,5.4,1.52h0a6.47,6.47,0,0,1,2.37,4.84l.06.59h5.55l0-.68a12.55,12.55,0,0,0-1.13-5.09,10,10,0,0,0-2.85-3.58,11.65,11.65,0,0,0-4.15-2.07,18.83,18.83,0,0,0-5-.64,18.2,18.2,0,0,0-4.72.62A13,13,0,0,0,90,33a9.78,9.78,0,0,0-3,3.31,9.67,9.67,0,0,0-1.13,4.77,7.68,7.68,0,0,0,3.71,7,14.84,14.84,0,0,0,3.65,1.64c1.31.4,2.66.76,4,1.06l4,.88a18,18,0,0,1,3.37,1.08,6.18,6.18,0,0,1,2.24,1.61,3.6,3.6,0,0,1,.78,2.43,5,5,0,0,1-.66,2.7,5,5,0,0,1-1.77,1.66,8.65,8.65,0,0,1-2.58.9,16.54,16.54,0,0,1-3,.28,14.05,14.05,0,0,1-3.55-.46,8.39,8.39,0,0,1-2.94-1.37,6.75,6.75,0,0,1-2-2.33,8.12,8.12,0,0,1-.76-3.65v-.56H84.85v.56A13.84,13.84,0,0,0,86,60.35a11,11,0,0,0,3.24,3.94A13.92,13.92,0,0,0,94,66.56a20.59,20.59,0,0,0,5.57.74,21.73,21.73,0,0,0,4.84-.56,14.49,14.49,0,0,0,4.46-1.85,10.69,10.69,0,0,0,3.32-3.34,10.35,10.35,0,0,0,.3-9.5A8.85,8.85,0,0,0,109.79,49.08Z"></path><polygon class="cls-1" points="275.92 73.37 252.62 73.37 252.62 23.15 259.76 23.15 259.76 66.22 275.92 66.22 275.92 73.37"></polygon><path class="cls-1" d="M307.36,60.25V23.15h-24.3V56.24h17.15v4A14.36,14.36,0,0,0,314.55,74.6V67.45A7.21,7.21,0,0,1,307.36,60.25ZM290.21,49.09V30.3h10V49.09Z"></path><rect class="cls-1" x="268.77" y="23.15" width="7.15" height="33.09"></rect><path class="cls-1" d="M338.2,29.92V23.15H314.49v7h13.37l-14.4,14.52a6.83,6.83,0,0,0,4.85,11.64H338.2V49.2H319.08Z"></path><path class="cls-1" d="M551.62,79.22c-2.64,0-5.19,0-7.74,0-.42,0-.48-.3-.61-.55-2-4-4-8.09-6-12.15a1,1,0,0,0-1.08-.7,1,1,0,0,0-1.07.72c-2,4-4,8.06-6,12.1a.89.89,0,0,1-.94.58c-2.25,0-4.5,0-6.76,0a1.2,1.2,0,0,1,.29-.71c2.66-4.8,5.31-9.61,8-14.39a2.57,2.57,0,0,0,0-2.79c-1.66-2.93-3.28-5.88-4.89-8.84a1,1,0,0,0-1-.56c-7,0-14,0-20.94,0a4.92,4.92,0,0,1-4.71-3.11c-3.16-7.68-6.46-15.31-9.71-23a1,1,0,0,0-1.33-.59.27.27,0,0,0-.2.31v.56q0,12.51,0,25c0,.63-.16.76-.76.75-1.79,0-3.57,0-5.36,0-.46,0-.57-.12-.57-.57q0-14.44,0-28.87a4.17,4.17,0,0,1,3.5-3.82,32.11,32.11,0,0,1,6.93,0,3.72,3.72,0,0,1,3,2.43c3.32,7.81,6.65,15.63,9.93,23.46.29.7.72.7,1.28.68.25,0,.33-.11.33-.34s0-.37,0-.56V19.55c0-1.16-.09-1,1-1,7.38,0,14.75,0,22.13,0,.69,0,.84.2.82.85,0,1.53,0,3.06,0,4.59,0,.53-.12.7-.68.7-5.06,0-10.11,0-15.17,0-.65,0-.81.18-.8.81,0,2,0,3.9,0,5.84,0,.6.13.78.76.77,4.4,0,8.81,0,13.21,0,.62,0,.85.13.81.79-.06,1.06,0,2.13,0,3.2a2,2,0,0,1-2.13,2.13c-4,0-7.93,0-11.9,0-.59,0-.73.18-.72.75q0,3.12,0,6.26c0,.58.16.73.74.73,5,0,10.06,0,15.1,0a1.13,1.13,0,0,1,1.19.77c1.93,4,3.92,7.92,5.85,11.9a1.08,1.08,0,0,0,1.14.63c.54,0,.75-.21,1-.66,1.95-4,3.94-8,5.89-12a.89.89,0,0,1,.94-.59q16.45,0,32.91,0c.6,0,.71.2.7.75,0,1.23.07,2.46-.73,3.52a4,4,0,0,1-3.27,1.8c-2.06,0-4.13,0-6.19,0-1.08,0-1-.1-1,1q0,12.77,0,25.53c0,.6-.13.78-.75.76-1.72,0-3.44,0-5.15,0-.56,0-.68-.15-.68-.69q0-12.8,0-25.6c0-1.11.14-1-1-1-3.57,0-7.14,0-10.71,0a1.08,1.08,0,0,0-1.12.67q-2.28,4.18-4.63,8.34a2.38,2.38,0,0,0,0,2.55q4.26,7.62,8.49,15.24Z"></path><path class="cls-1" d="M573.94,38.29c-.6,0-1.2-.12-1.8-.11s-.49-.31-.51-.67.25-.38.54-.36a26.79,26.79,0,0,0,3.47.05,1.29,1.29,0,0,0,1-2,.71.71,0,0,0-.59-.3c-1-.12-2.07-.23-3.1-.37-1.18-.16-1.54-.6-1.59-1.87s.4-2.1,1.48-2.31a15.23,15.23,0,0,1,4.42,0c.45,0,.28.39.32.64s-.17.36-.43.34a22.72,22.72,0,0,0-3.4,0c-.93.09-1.18.39-1.12,1.3a.75.75,0,0,0,.75.82c.89.09,1.79.17,2.69.28.71.09,1.5.12,1.76,1a3.08,3.08,0,0,1-.36,3,2.31,2.31,0,0,1-1.73.57C575.15,38.33,574.54,38.29,573.94,38.29Z"></path><path class="cls-1" d="M542.28,38.29c-.6,0-1.2-.12-1.8-.11s-.5-.24-.51-.61.23-.44.57-.42a25.73,25.73,0,0,0,3.4.06,1.3,1.3,0,0,0,1.06-2c-.14-.26-.4-.29-.65-.33-1-.12-2.07-.22-3.1-.36s-1.44-.56-1.51-1.64A2.94,2.94,0,0,1,540,31.1a2.22,2.22,0,0,1,2-.85,23.71,23.71,0,0,1,3.47.1c.51,0,.43.33.46.65,0,.49-.29.37-.55.35a21.78,21.78,0,0,0-3.33,0c-.83.1-1,.3-1,1.08s.07,1,1,1.07,2,.19,3,.34,1.26.53,1.37,1.47a5.25,5.25,0,0,1,0,1,1.77,1.77,0,0,1-1.77,2,3.12,3.12,0,0,1-.41.06Z"></path><path class="cls-1" d="M562.73,34.23c0-1.14,0-2.27,0-3.41,0-.4.12-.52.51-.51,1.69,0,3.39,0,5.08,0,.43,0,.54.12.55.55s-.23.5-.59.5c-1.23,0-2.46,0-3.69,0-.44,0-.59.1-.59.57,0,1.8,0,1.8,1.73,1.8h1.81c.34,0,.66-.09.66.49s-.31.54-.7.54c-1,0-2,0-2.92,0-.45,0-.62.13-.58.59a7.28,7.28,0,0,1,0,1.32c0,.45.15.55.56.54,1.25,0,2.51,0,3.76,0,.43,0,.55.12.55.55s-.18.49-.54.49c-1.69,0-3.39,0-5.08,0-.47,0-.52-.19-.52-.58C562.75,36.5,562.73,35.36,562.73,34.23Z"></path><path class="cls-1" d="M556.69,30.32c1,0,2,0,3,0,.43,0,.54.14.54.56s-.13.52-.52.51c-.58,0-1.16,0-1.74,0s-.67.19-.67.7c0,1.86,0,3.71,0,5.56,0,.53-.2.59-.65.59s-.64-.09-.63-.6c0-1.87,0-3.75,0-5.62,0-.48-.1-.67-.61-.63s-1.2,0-1.8,0c-.41,0-.51-.14-.5-.53s.05-.55.48-.54C554.65,30.33,555.67,30.32,556.69,30.32Z"></path><path class="cls-1" d="M550.64,34.2c0,1.15,0,2.31,0,3.46,0,.6-.31.52-.69.54s-.61-.07-.6-.56c0-2.26,0-4.52,0-6.79,0-.59.31-.53.69-.54s.62.07.61.56C550.62,32,550.64,33.09,550.64,34.2Z"></path><path class="cls-1" d="M787.44,42.32h-4.18v2.77a11.81,11.81,0,1,0,0,18.08v2.77h4.18V55q0-.44,0-.87t0-.87Zm-11.78,19.4a7.59,7.59,0,1,1,7.6-7.59A7.6,7.6,0,0,1,775.66,61.72Z"></path><path class="cls-1" d="M749.94,65.94a11.73,11.73,0,0,0,7.59-2.77v2.77h4.18V55c0-.29,0-.58,0-.87s0-.58,0-.87V37.68h-4.18v7.41a11.81,11.81,0,1,0-7.59,20.85Zm0-19.4a7.59,7.59,0,1,1-7.59,7.59A7.6,7.6,0,0,1,749.94,46.54Z"></path><path class="cls-1" d="M691.22,69.28a7.61,7.61,0,0,1,7.06,4.8h4.42a11.81,11.81,0,0,0-23.28,2.53h0V86.94h0a11.8,11.8,0,0,0,23.09,2.32h-4.5a7.59,7.59,0,0,1-14.42-3.32v0l0,0V76.93l0,0v0A7.61,7.61,0,0,1,691.22,69.28Z"></path><path class="cls-1" d="M727.13,74.08H723v2.77a11.81,11.81,0,1,0,0,18.07v2.77h4.18V86.75c0-.28,0-.57,0-.86s0-.58,0-.87Zm-11.77,19.4A7.6,7.6,0,1,1,723,85.89,7.61,7.61,0,0,1,715.36,93.48Z"></path><path class="cls-1" d="M787.44,74.08h-4.18v2.77a11.81,11.81,0,1,0,0,18.07v2.77h4.18V86.75c0-.28,0-.57,0-.86s0-.58,0-.87Zm-11.78,19.4a7.6,7.6,0,1,1,7.6-7.59A7.61,7.61,0,0,1,775.66,93.48Z"></path><rect class="cls-1" x="731.17" y="74.08" width="4.18" height="23.62"></rect><path class="cls-1" d="M762.62,75.45a12.3,12.3,0,0,0-.08-1.37h-4.27a6.85,6.85,0,0,1,.13,1.37,7.59,7.59,0,1,1-15.06-1.37h-4.26a12.3,12.3,0,0,0-.08,1.37,11.82,11.82,0,0,0,5.09,9.7,11.79,11.79,0,0,0-5.09,9.7,11.57,11.57,0,0,0,.35,2.84h4.42a7.68,7.68,0,0,1-.55-2.84,7.59,7.59,0,0,1,15.18,0,7.49,7.49,0,0,1-.56,2.84h4.43a11.57,11.57,0,0,0,.35-2.84,11.79,11.79,0,0,0-5.09-9.7A11.82,11.82,0,0,0,762.62,75.45Z"></path><path class="cls-1" d="M710.76,21.1h7.84V16.91h-7.84V15.86l0-4.08A7.59,7.59,0,0,1,725.43,9,11.71,11.71,0,0,1,729.19,7a11.81,11.81,0,0,0-22.61,4.74h0V32.71h4.18Z"></path><path class="cls-1" d="M722.79,20.84A11.81,11.81,0,1,0,734.6,9,11.83,11.83,0,0,0,722.79,20.84Zm11.81-7.59A7.59,7.59,0,1,1,727,20.84,7.61,7.61,0,0,1,734.6,13.25Z"></path><path class="cls-1" d="M765.79,10.3a11.74,11.74,0,0,0-12.93,1.54V9h-4.19V32.65h4.19l0-2.77v-9a7.61,7.61,0,0,1,7.59-7.59,7.43,7.43,0,0,1,2.51.43A11.88,11.88,0,0,1,765.79,10.3Z"></path><path class="cls-1" d="M775.66,32.65a11.78,11.78,0,0,0,7.6-2.77v2.77h4.18V21.71q0-.43,0-.87c0-.29,0-.58,0-.86V9h-4.18v2.78a11.8,11.8,0,1,0-7.6,20.84Zm0-19.4a7.59,7.59,0,1,1-7.59,7.59A7.61,7.61,0,0,1,775.66,13.25Z"></path></g></g></svg> 