<svg xmlns="http://www.w3.org/2000/svg" viewBox="0 0 116.4 116.4"><defs><style>.cls-1{fill:#161616;}.cls-2{fill:#fff;}</style></defs><g id="Camada_2" data-name="Camada 2"><g id="Camada_1-2" data-name="Camada 1"><rect class="cls-1" width="116.4" height="116.4"/><path class="cls-2" d="M27.68,43.43c-7.27,0-15.77,5-15.77,15.3S20.41,74,27.68,74s15.77-5,15.77-15.3S34.92,43.43,27.68,43.43Zm0,26c-5.06,0-10.94-3.54-10.94-10.7s5.88-10.69,10.94-10.69,10.93,3.49,10.93,10.69S32.73,69.45,27.68,69.45Z"/><path class="cls-2" d="M61,44.1H46.33V73.38h5V62.89H61a8.46,8.46,0,0,0,6.71-3A9.94,9.94,0,0,0,70,53.47,10.07,10.07,0,0,0,67.72,47,8.45,8.45,0,0,0,61,44.1Zm4,9.42a5.43,5.43,0,0,1-1.1,3.35,3.92,3.92,0,0,1-3.22,1.53H51.34V48.57h9.33a3.93,3.93,0,0,1,3.22,1.55A5.39,5.39,0,0,1,65,53.52Z"/><path class="cls-2" d="M75.82,66.92a3.2,3.2,0,0,0-3.25,3.2,3.34,3.34,0,0,0,.94,2.32A3.21,3.21,0,0,0,79,70.12a3.29,3.29,0,0,0-.91-2.29A3.11,3.11,0,0,0,75.82,66.92Z"/><polygon class="cls-2" points="77.45 62.89 78.57 44.1 72.97 44.1 74.09 62.89 77.45 62.89"/><path class="cls-2" d="M102.5,58.91a11.07,11.07,0,0,0-3-1.5c-1.07-.36-2.19-.67-3.33-.94s-2.24-.51-3.29-.74a17.54,17.54,0,0,1-2.8-.82,5.52,5.52,0,0,1-1.85-1.19A2.36,2.36,0,0,1,87.58,52,4.25,4.25,0,0,1,88,50a3.41,3.41,0,0,1,1.23-1.27A5.47,5.47,0,0,1,91.12,48a10,10,0,0,1,2.21-.22A7.42,7.42,0,0,1,97.78,49h0a5.36,5.36,0,0,1,2,4l0,.5h4.58l0-.56a10.61,10.61,0,0,0-.94-4.21,8.31,8.31,0,0,0-2.35-2.95,9.47,9.47,0,0,0-3.42-1.7,15.24,15.24,0,0,0-4.14-.54,14.89,14.89,0,0,0-3.89.52,10.85,10.85,0,0,0-3.43,1.56,8.16,8.16,0,0,0-2.46,2.73,8,8,0,0,0-.94,3.94,6.68,6.68,0,0,0,.85,3.47A6.92,6.92,0,0,0,85.86,58a13.27,13.27,0,0,0,3,1.37c1.07.33,2.19.63,3.31.87s2.1.47,3.29.72a12.69,12.69,0,0,1,2.77.89,5.24,5.24,0,0,1,1.86,1.32,3.08,3.08,0,0,1,.65,2,4,4,0,0,1-.54,2.21,3.87,3.87,0,0,1-1.45,1.36,6.41,6.41,0,0,1-2.13.74,12.53,12.53,0,0,1-2.44.23,11.89,11.89,0,0,1-2.93-.38,7.51,7.51,0,0,1-2.44-1.14,5.85,5.85,0,0,1-1.65-1.93,6.94,6.94,0,0,1-.63-3V62.8H81.92v.47a11.42,11.42,0,0,0,1,4.88,8.72,8.72,0,0,0,2.66,3.24,11.62,11.62,0,0,0,3.87,1.88,17.23,17.23,0,0,0,4.61.6,16.91,16.91,0,0,0,4-.47,11.83,11.83,0,0,0,3.69-1.52,8.64,8.64,0,0,0,2.73-2.75,7.45,7.45,0,0,0-2-10.22Z"/></g></g></svg>