<svg xmlns="http://www.w3.org/2000/svg" viewBox="0 0 105.33 105.33"><defs><style>.cls-1{fill:none;}.cls-2{fill:#979797;}</style></defs><title>Ativo 5</title><g id="Camada_2" data-name="Camada 2"><g id="Layer_2" data-name="Layer 2"><rect class="cls-1" width="105.33" height="105.33"/><path class="cls-2" d="M88.31,27.47l4-4H85.1a4,4,0,0,0,.84-2.36,4.1,4.1,0,0,0-4-4,4,4,0,0,0-2.36.84V10.62l-4,4-4.72,4.72A38,38,0,0,0,13,51.9v4.72a38.09,38.09,0,0,0,76.17,0V51.9a36.7,36.7,0,0,0-5.56-19.72Zm-1.69-1.69L80.38,32h0L77,35.39H71.62l9.61-9.61Zm-5.9-5.9a1.53,1.53,0,0,1,1.18-.51,1.69,1.69,0,0,1,1.69,1.69,1.73,1.73,0,0,1-1.69,1.69,1.69,1.69,0,0,1-1.69-1.69A1.53,1.53,0,0,1,80.72,19.89ZM79,21.4a2.86,2.86,0,0,0,2.36,2.36l-2,2L56.79,48.37A6.34,6.34,0,0,0,54.43,46L77,23.42ZM50.89,59.15A7.12,7.12,0,0,0,58,52.07a6.16,6.16,0,0,0-.51-2.53l7.41-7.41a17.07,17.07,0,0,1,3.2,9.94A17.36,17.36,0,1,1,50.73,34.72a17.07,17.07,0,0,1,9.94,3.2l-7.41,7.41a6.76,6.76,0,0,0-2.53-.51,7.12,7.12,0,0,0-7.08,7.08A7.3,7.3,0,0,0,50.89,59.15ZM77,16.35v5.39l-9.61,9.61V26Zm7.25,22.92h0c.34.84.51,1.52.84,2.36V42c.17.67.34,1.52.51,2.19a1,1,0,0,0,.17.67,7.17,7.17,0,0,1,.34,1.85c0,.34.17.84.17,1.18,0,.51.17.84.17,1.35,0,.84.17,1.85.17,2.7A35.73,35.73,0,1,1,37.07,19a34.58,34.58,0,0,1,14-2.86,14.49,14.49,0,0,1,2.7.17c.51,0,.84.17,1.35.17a2.87,2.87,0,0,1,1.18.17c.67.17,1.18.17,1.85.34a1,1,0,0,1,.67.17c.67.17,1.52.34,2.19.51h.17a41.36,41.36,0,0,1,8.76,4l-3.2,3.2-.34.34v5.56a25.87,25.87,0,0,0-15.5-5.06A26.28,26.28,0,1,0,72.13,36.57h5.56l.34-.34,3.2-3.2A42.57,42.57,0,0,1,84.26,39.27Z"/></g></g></svg>