<svg xmlns="http://www.w3.org/2000/svg" viewBox="0 0 105.33 105.33"><defs><style>.cls-1{fill:none;}.cls-2{fill:#979797;}</style></defs><title>Ativo 4</title><g id="Camada_2" data-name="Camada 2"><g id="Layer_2" data-name="Layer 2"><rect class="cls-1" width="105.33" height="105.33"/><path class="cls-2" d="M88,40H38.15L86.38,26.81l2.56-.75-.73-2.64-.73-2.64A7.72,7.72,0,0,0,80,14.93a8.9,8.9,0,0,0-2.19.38L20.43,31a7.47,7.47,0,0,0-4.75,3.77,7.33,7.33,0,0,0-.55,5.85l.73,2.26V82.47a7.85,7.85,0,0,0,7.67,7.92H82.91a7.85,7.85,0,0,0,7.67-7.92V39.83H88ZM21.16,33.61,78.52,17.95A3.9,3.9,0,0,1,80,17.76a4.94,4.94,0,0,1,4.93,4l.73,2.64-5.11,1.32-3.47-4.15-4.93,1.32L75.42,27l-4.93,1.32-3.65-4.15L61.9,25.49l3.65,4.15L60.44,31,57,26.63l-5.11,1.32,3.65,4.34-4.93,1.32-3.65-4L42,31l3.47,4.15-5.11,1.32-3.47-4.15-4.93,1.32,3.47,4.15-8.77,2.45L26.46,40l-5.11-3.4a3,3,0,0,0-1.83-.57,2.44,2.44,0,0,0-2.37,1.51A5.77,5.77,0,0,1,21.16,33.61Zm-2.92,9.06v-3.4a1.64,1.64,0,0,1,1.46-1.7,2.54,2.54,0,0,1,1.1.38l5.11,3.4a1.56,1.56,0,0,1,0,2.64l-5.11,3.4a2.54,2.54,0,0,1-1.1.38,1.52,1.52,0,0,1-1.46-1.7ZM88,82.66a5.19,5.19,0,0,1-5.11,5.28H23.54a5.19,5.19,0,0,1-5.11-5.28V48.51a2,2,0,0,0,1.46.57,2.88,2.88,0,0,0,1.64-.57l5.11-3.4a3,3,0,0,0,1.46-2.45h8.22l-2.56,5.28h5.11l2.56-5.28h5.11L44,47.95h5.11l2.56-5.28h5.11l-2.56,5.28h5.11l2.56-5.28H67l-2.56,5.28h5.11l2.56-5.28h5.11l-2.56,5.28H79.8l2.56-5.28h5.11v40Z"/><rect class="cls-2" x="20.8" y="53.23" width="12.97" height="2.64"/><rect class="cls-2" x="20.8" y="58.7" width="64.66" height="2.64"/><rect class="cls-2" x="20.8" y="63.98" width="18.08" height="2.64"/><rect class="cls-2" x="20.8" y="69.27" width="64.66" height="2.64"/><rect class="cls-2" x="25.91" y="77.38" width="10.41" height="2.64"/><rect class="cls-2" x="49.3" y="77.38" width="10.41" height="2.64"/><rect class="cls-2" x="72.49" y="77.38" width="10.41" height="2.64"/><rect class="cls-2" x="41.44" y="74.74" width="2.56" height="10.75"/><rect class="cls-2" x="64.82" y="74.74" width="2.56" height="10.75"/></g></g></svg>