<svg xmlns="http://www.w3.org/2000/svg" viewBox="0 0 105.33 105.33"><defs><style>.cls-1{fill:none;}.cls-2{fill:#979797;}</style></defs><title>Ativo 2</title><g id="Camada_2" data-name="Camada 2"><g id="Camada_1-2" data-name="Camada 1"><rect class="cls-1" width="105.33" height="105.33"/><path class="cls-2" d="M88.81,69.72h0V31.4A14.82,14.82,0,0,0,73.93,16.52H31.4A14.82,14.82,0,0,0,16.52,31.4V73.93A14.82,14.82,0,0,0,31.4,88.81H73.93a15,15,0,0,0,14.58-12,16.65,16.65,0,0,0,.3-2.86Zm-14.88,17H31.1A12.86,12.86,0,0,1,18.62,74.83,12.76,12.76,0,0,0,30.34,82.5H75a12.85,12.85,0,0,0,11.57-7.36A12.84,12.84,0,0,1,74.08,86.86.15.15,0,0,0,73.93,86.71Zm5.41-59.82V32.3A2.69,2.69,0,0,1,76.64,35H71.22a2.69,2.69,0,0,1-2.71-2.71V26.89a2.69,2.69,0,0,1,2.71-2.71h5.41A2.6,2.6,0,0,1,79.34,26.89Zm-26.75,11A14.88,14.88,0,1,1,37.71,52.74,14.82,14.82,0,0,1,52.59,37.86ZM40.11,41.32a17,17,0,1,0,25.25,0H86.71V70.92A11.59,11.59,0,0,1,75.13,81.29H30.49A11.74,11.74,0,0,1,18.77,69.57h0V41.17H40.11Z"/></g></g></svg>