<svg xmlns="http://www.w3.org/2000/svg" viewBox="0 0 105.33 105.33"><defs><style>.cls-1{fill:none;}.cls-2{fill:#979797;}</style></defs><title>Ativo 3</title><g id="Camada_2" data-name="Camada 2"><g id="Layer_2" data-name="Layer 2"><rect class="cls-1" width="105.33" height="105.33"/><path class="cls-2" d="M84.6,13H20.72a6.81,6.81,0,0,0-6.77,6.76V74.16a7,7,0,0,0,6.77,7.09h45l13.07,8.7,3.55,2.42v-11H84.6a7,7,0,0,0,6.77-7.09V19.89A6.85,6.85,0,0,0,84.6,13ZM80.09,79V83.5L66.37,74.32H20.72a4.68,4.68,0,0,1-4.52-4.83V59.35a5.82,5.82,0,0,0,4.52,2.42h3.39v10l1.77-1.13,13.39-8.86H84.6a5.58,5.58,0,0,0,4.52-2.42V69.49a4.79,4.79,0,0,1-4.52,4.83H80.09V79ZM16.21,54.84a5.82,5.82,0,0,0,4.52,2.42h3.39v3.38H20.72a4.68,4.68,0,0,1-4.52-4.83ZM38.63,61,25.4,69.81V66.59l.65-.48,12.58-8.37Zm46-.32H39.76V57.25H84.6a5.58,5.58,0,0,0,4.52-2.42V56A4.76,4.76,0,0,1,84.6,60.63Zm4.52-9.34a4.79,4.79,0,0,1-4.52,4.83H39L25.24,65.3v-9H20.72a4.68,4.68,0,0,1-4.52-4.83V19.73a4.5,4.5,0,0,1,4.52-4.51H84.6a4.5,4.5,0,0,1,4.52,4.51ZM16.21,74.16V73a5.82,5.82,0,0,0,4.52,2.42H65.41v3.38H20.72C18.14,79,16.21,76.58,16.21,74.16Zm50.33,5V75.93l12.74,8.53.65.48v3.22ZM84.6,79H81.21V75.61H84.6a5.58,5.58,0,0,0,4.52-2.42v1.13A4.87,4.87,0,0,1,84.6,79Z"/><ellipse class="cls-2" cx="34.44" cy="35.67" rx="6.45" ry="6.44"/><ellipse class="cls-2" cx="52.66" cy="35.67" rx="6.45" ry="6.44"/><ellipse class="cls-2" cx="70.89" cy="35.67" rx="6.45" ry="6.44"/></g></g></svg>