<svg xmlns="http://www.w3.org/2000/svg" viewBox="0 0 105.33 105.33"><defs><style>.cls-1{fill:none;}.cls-2{fill:#979797;}</style></defs><title>Ativo 2</title><g id="Camada_2" data-name="Camada 2"><g id="Layer_2" data-name="Layer 2"><rect class="cls-1" width="105.33" height="105.33"/><path class="cls-2" d="M91.09,21.4A7.31,7.31,0,0,0,86,19.21H19.3a6.65,6.65,0,0,0-5.06,2.19,7.31,7.31,0,0,0-2.19,5.06V78.87a6.65,6.65,0,0,0,2.19,5.06,7.31,7.31,0,0,0,5.06,2.19H86a6.65,6.65,0,0,0,5.06-2.19,7.31,7.31,0,0,0,2.19-5.06V26.46A8.13,8.13,0,0,0,91.09,21.4Zm-.34,57.47a5.35,5.35,0,0,1-1.35,3.37A4.57,4.57,0,0,1,86,83.59H19.3a5.35,5.35,0,0,1-3.37-1.35,4.57,4.57,0,0,1-1.35-3.37V26.46a5.35,5.35,0,0,1,1.35-3.37,4.57,4.57,0,0,1,3.37-1.35H86a5.35,5.35,0,0,1,3.37,1.35,4.57,4.57,0,0,1,1.35,3.37Z"/><path class="cls-2" d="M86,30H19.3a3.43,3.43,0,0,0-2.53,1,3.72,3.72,0,0,0-1,2.53V78.87a3.43,3.43,0,0,0,1,2.53,3.72,3.72,0,0,0,2.53,1H86a3.43,3.43,0,0,0,2.53-1,3.72,3.72,0,0,0,1-2.53V33.7a3.43,3.43,0,0,0-1-2.53A3.93,3.93,0,0,0,86,30Zm2.36,48.87a2.41,2.41,0,0,1-.67,1.69,2.16,2.16,0,0,1-1.69.67H19.3a2.41,2.41,0,0,1-1.69-.67,2.16,2.16,0,0,1-.67-1.69V33.7A2.41,2.41,0,0,1,17.61,32a2.16,2.16,0,0,1,1.69-.67H86a2.41,2.41,0,0,1,1.69.67,2.16,2.16,0,0,1,.67,1.69Z"/><circle class="cls-2" cx="19.3" cy="26.46" r="2.36"/><circle class="cls-2" cx="26.54" cy="26.46" r="2.36"/><circle class="cls-2" cx="33.62" cy="26.46" r="2.36"/><circle class="cls-2" cx="45.59" cy="68.25" r="2.36"/><circle class="cls-2" cx="59.91" cy="68.25" r="2.36"/><path class="cls-2" d="M64.46,46.68H43.23V49H63.28L61.43,61H44.07L37,42H31.43v2.36h4l6.74,17.86a1.82,1.82,0,0,0,1.85,1.18H61.76a1.84,1.84,0,0,0,1.85-1.69L66,48.2C65.81,47.52,65.3,46.68,64.46,46.68Z"/></g></g></svg>