<?xml version="1.0" encoding="UTF-8"?> <svg xmlns="http://www.w3.org/2000/svg" viewBox="0 0 582.63 74.31"><defs><style>.cls-1{fill:#fff;}</style></defs><g id="Camada_2" data-name="Camada 2"><g id="Camada_1-2" data-name="Camada 1"><path class="cls-1" d="M18.32,18.18H13.14L0,50.34l0,.11H4.73L7.85,43H23.47l3.1,7.41,0,.05h4.87L18.34,18.23ZM9.49,38.87l6.17-15.79,6.17,15.79Z"></path><path class="cls-1" d="M92.92,43.57a13.52,13.52,0,0,1-3.13,2.48,7.71,7.71,0,0,1-3.89,1,8,8,0,0,1-6-2.57,9,9,0,0,1-1.77-2.84,9.28,9.28,0,0,1-.64-3.48V38a9.74,9.74,0,0,1,.62-3.49,8.82,8.82,0,0,1,1.72-2.81,8.27,8.27,0,0,1,2.6-1.87,7.66,7.66,0,0,1,3.2-.68,7.27,7.27,0,0,1,3.92,1,16.38,16.38,0,0,1,3,2.49L93,33l3-3.18-.3-.32a19.13,19.13,0,0,0-1.86-1.72,11.63,11.63,0,0,0-2.23-1.43,11.93,11.93,0,0,0-2.66-.94,14,14,0,0,0-3.22-.34,12.5,12.5,0,0,0-5.1,1A12.78,12.78,0,0,0,76.56,29a13.1,13.1,0,0,0-3.64,9.16v.09a13.05,13.05,0,0,0,1,5,12.76,12.76,0,0,0,6.74,6.93,12.5,12.5,0,0,0,5.1,1,12,12,0,0,0,5.93-1.36,16.61,16.61,0,0,0,4.24-3.45l.3-.34-3-2.77Z"></path><path class="cls-1" d="M137.71,26.12a12.33,12.33,0,0,0-8.37,3.26V25.89h-4V58.16h4V47.68a12.41,12.41,0,1,0,8.37-21.56Zm0,20.47a8.07,8.07,0,1,1,8.07-8.06A8.07,8.07,0,0,1,137.71,46.59Z"></path><path class="cls-1" d="M117.24,29.07a12.42,12.42,0,1,0,0,18.29v3h4V25.89h-4Zm-8.38,17.21a8.07,8.07,0,1,1,8.07-8.06A8.07,8.07,0,0,1,108.86,46.28Z"></path><path class="cls-1" d="M69.81,46.37H69.5A9.62,9.62,0,0,1,63.18,44a26.17,26.17,0,0,0,6.13-16.69c0-6.9-3-11.18-7.88-11.18-5.23,0-8.35,4.79-8.35,12.81a26.72,26.72,0,0,0,4,14.82c-6.46,4.55-11.46,1.62-13.41,0a26.24,26.24,0,0,0,6-16.49c0-6.9-3-11.18-7.88-11.18-5.23,0-8.35,4.79-8.35,12.81,0,5.84,1.48,11.18,4.18,15.06-1.33,1.18-2.15,1.54-4.91,2.68l-.14.06L34,50.26l.14-.06.72-.28a21.49,21.49,0,0,0,5.53-2.81,14.25,14.25,0,0,0,9.57,3.73,17.93,17.93,0,0,0,10.33-3.57,13.48,13.48,0,0,0,8.9,3.25l1.65,0a10.74,10.74,0,0,0,3.92-1.22l-2.14-3.78A5.87,5.87,0,0,1,69.81,46.37Zm-32-17.73c0-5.29,1.4-8.32,3.84-8.32,2.24,0,3.57,2.6,3.57,7a22.39,22.39,0,0,1-4.48,13.36A23.68,23.68,0,0,1,37.85,28.64Zm19.64,0c0-5.29,1.4-8.32,3.84-8.32,2.24,0,3.57,2.6,3.57,7a22.39,22.39,0,0,1-4.48,13.36A23.78,23.78,0,0,1,57.49,28.64Z"></path><path class="cls-1" d="M269.12,49.07h14.17v2.44H271.56v7.3h9.67l-.35,2.44h-9.32V74h-2.44Z"></path><path class="cls-1" d="M287.13,49h2.45V74h-2.45Z"></path><path class="cls-1" d="M297.6,71.51h10.65L307.9,74H295.16V49h2.44Z"></path><path class="cls-1" d="M342.29,51a7.6,7.6,0,0,1,2.23,5.41V74h-2.44V57.06c0-3.84-2.27-6-5.62-6-5,0-6.88,5.1-7.12,5.87V74h-2.45V57.06c0-3.84-2.27-6-5.62-6-4.68,0-6.63,4.43-7.09,5.66V74h-2.44V49h2.44v3.56a8.77,8.77,0,0,1,7.51-3.91,7.7,7.7,0,0,1,7.12,4.89,8.82,8.82,0,0,1,8.07-4.89A7.51,7.51,0,0,1,342.29,51Z"></path><path class="cls-1" d="M364.17,64.85a6.06,6.06,0,0,1,.88,3.14,5.57,5.57,0,0,1-2.59,4.74,10.12,10.12,0,0,1-5.83,1.58c-6.49,0-9.21-4.23-9.32-4.4l2.1-1.29h0a9.38,9.38,0,0,0,1.71,1.64,9.77,9.77,0,0,0,5.55,1.6,8.17,8.17,0,0,0,4.47-1.15A3.14,3.14,0,0,0,362.6,68a4,4,0,0,0-2-3.39,23.26,23.26,0,0,0-5.13-2.44,27.6,27.6,0,0,1-5.24-2.48,6.37,6.37,0,0,1-1.95-2,4.92,4.92,0,0,1-.8-2.75A5.09,5.09,0,0,1,350,50.43a11.57,11.57,0,0,1,6.07-1.4,16.48,16.48,0,0,1,8.45,2.62l-.7,1-.69,1a13.93,13.93,0,0,0-7.06-2.19,9.29,9.29,0,0,0-4.78,1A2.76,2.76,0,0,0,349.93,55a3.16,3.16,0,0,0,1.71,2.68,21.34,21.34,0,0,0,4.71,2.2A29.14,29.14,0,0,1,362,62.61,7,7,0,0,1,364.17,64.85Z"></path><path class="cls-1" d="M282.54,0c-7.83,0-17,5.41-17,16.5S274.71,33,282.54,33s17-5.41,17-16.51S290.37,0,282.54,0Zm0,28c-5.46,0-11.81-3.8-11.81-11.54S277.08,5,282.54,5s11.81,3.76,11.81,11.54S288,28,282.54,28Z"></path><path class="cls-1" d="M318.5.72H302.67V32.29h5.41V21H318.5a9.15,9.15,0,0,0,7.25-3.18,10.76,10.76,0,0,0,2.42-7,10.66,10.66,0,0,0-2.42-6.93A9.14,9.14,0,0,0,318.5.72Zm4.3,10.15a6,6,0,0,1-1.17,3.63,4.27,4.27,0,0,1-3.48,1.65H308.08V5.55h10.07a4.23,4.23,0,0,1,3.47,1.65A6,6,0,0,1,322.8,10.87Z"></path><path class="cls-1" d="M334.47,25.32a3.44,3.44,0,0,0-3.5,3.45,3.55,3.55,0,0,0,1,2.51,3.51,3.51,0,1,0,2.48-6Z"></path><polygon class="cls-1" points="336.21 20.99 337.42 0.73 331.41 0.73 332.61 20.99 336.21 20.99"></polygon><path class="cls-1" d="M363.25,16.69A12.35,12.35,0,0,0,360,15.06c-1.17-.38-2.37-.72-3.58-1s-2.41-.54-3.55-.78a18.08,18.08,0,0,1-3-.88,5.8,5.8,0,0,1-2-1.28,2.6,2.6,0,0,1-.66-1.87,4.36,4.36,0,0,1,.49-2.19A3.91,3.91,0,0,1,349,5.67a6,6,0,0,1,2-.77,11.86,11.86,0,0,1,2.38-.24A8,8,0,0,1,358.17,6h0a5.79,5.79,0,0,1,2.11,4.31l.05.52h4.94l0-.6a11.32,11.32,0,0,0-1-4.53,9,9,0,0,0-2.54-3.19A10.16,10.16,0,0,0,358,.68a16.86,16.86,0,0,0-4.48-.57,15.9,15.9,0,0,0-4.19.55,11.81,11.81,0,0,0-3.7,1.69A8.74,8.74,0,0,0,343,5.3a8.55,8.55,0,0,0-1,4.24,7.26,7.26,0,0,0,.91,3.75,7.31,7.31,0,0,0,2.39,2.43,13.31,13.31,0,0,0,3.26,1.47c1.16.35,2.36.67,3.57.94l3.54.78a16.27,16.27,0,0,1,3,1,5.56,5.56,0,0,1,2,1.43,3.25,3.25,0,0,1,.69,2.17,4.09,4.09,0,0,1-2.16,3.88,7.82,7.82,0,0,1-2.3.8,14.7,14.7,0,0,1-2.63.24,12.31,12.31,0,0,1-3.15-.4,7.54,7.54,0,0,1-2.62-1.22,6.26,6.26,0,0,1-1.78-2.07,7.28,7.28,0,0,1-.67-3.25V21h-5v.5a12.31,12.31,0,0,0,1.06,5.26A9.71,9.71,0,0,0,345,30.22a12.45,12.45,0,0,0,4.17,2,18.3,18.3,0,0,0,5,.66,19.32,19.32,0,0,0,4.3-.5,12.63,12.63,0,0,0,4-1.65,9.4,9.4,0,0,0,3-3,8.17,8.17,0,0,0,1.17-4.44,8.15,8.15,0,0,0-.9-4A7.91,7.91,0,0,0,363.25,16.69Z"></path><path class="cls-1" d="M579.21,53.33c-1,0-1.9,0-2.85,0-.34,0-.44.09-.44.43q0,4.38,0,8.76c0,.46,0,.46-.45.46h-9.4c-.33,0-.4-.12-.4-.43q0-4.39,0-8.79c0-.44,0-.44-.45-.44H536.53c-.56,0-.7-.14-.7-.71V44.33a2.76,2.76,0,0,1,.87-2.11L558.92,20c2.2-2.2,4.4-4.39,6.59-6.6a.93.93,0,0,1,.7-.29H575a1,1,0,0,1,1,.83,2.81,2.81,0,0,1,.06.65V42.31c0,.48,0,.48.49.48h6V7.58c0-.25,0-.31-.3-.31H536V28.75a.91.91,0,0,0,0,.17c0,.08,0,.2.06.23s.13-.07.19-.12l.58-.58,3.25-3.25c.92-.92,1.82-1.85,2.75-2.75s1.69-1.65,2.51-2.49,1.54-1.46,2.26-2.25c.54-.6,1.13-1.16,1.72-1.72,1.09-1.05,2.14-2.14,3.23-3.19a.47.47,0,0,1,.35-.15h8.4c.12,0,.25,0,.3.13a.3.3,0,0,1-.08.33l-.37.37c-1.26,1.3-2.52,2.6-3.79,3.88-.56.56-1.09,1.15-1.65,1.71-.85.86-1.72,1.7-2.58,2.56-1.63,1.65-3.27,3.28-4.87,4.95-1.11,1.17-2.28,2.28-3.38,3.45-.83.88-1.71,1.71-2.54,2.59-.08.09-.16.22-.32.19a.26.26,0,0,1-.1.24l-.07.06c-1.76,1.78-3.53,3.56-5.27,5.35-.63.66-1.27,1.3-1.89,2-.22.22-.37.2-.58,0q-2.4-2.43-4.83-4.83a.68.68,0,0,1-.19-.57V7.28h-6c-.23,0-.28,0-.28.27q0,29.61,0,59.21c0,.24.06.28.29.28h59.21c.23,0,.26,0,.26-.27V53.35Z"></path><path class="cls-1" d="M558.46,42.65h-7.3c-.31,0-.41-.3-.22-.56a1.62,1.62,0,0,1,.18-.19l14.26-14.27c.14-.13.27-.29.49-.18s.2.29.2.48V42.09c0,.46-.1.56-.57.56Z"></path></g></g></svg> 