<?xml version="1.0" encoding="utf-8"?>
<!-- Generator: Adobe Illustrator 26.0.0, SVG Export Plug-In . SVG Version: 6.00 Build 0)  -->
<svg version="1.1" id="Camada_1" xmlns="http://www.w3.org/2000/svg" xmlns:xlink="http://www.w3.org/1999/xlink" x="0px" y="0px"
	 viewBox="0 0 501.1 59.3" style="enable-background:new 0 0 501.1 59.3;" xml:space="preserve">
<style type="text/css">
	.st0{fill:#7E7F7F;}
	.st1{fill:#666868;}
	.st2{font-family:'ArialMT';}
	.st3{font-size:7.38px;}
	.st4{letter-spacing:8.2;}
	.st5{font-family:'Arial-BoldMT';}
	.st6{font-size:5.24px;}
	.st7{font-size:7.58px;}
	.st8{font-size:16.16px;}
	.st9{letter-spacing:-1;}
</style>
<g id="Camada_2_00000008123870502383541400000014036337613370914220_">
	<g id="Layer_2">
		<g id="Camada_2-2">
			<g id="Layer_1">
				<path class="st0" d="M190.6,26.1c0.3,0.5,0.8,0.7,1.4,0.7c0.7,0.1,1.3-0.4,1.4-1.1c0-1.6-3-0.6-3-2.9c0.1-0.9,0.9-1.7,1.8-1.6
					c0,0,0,0,0,0c0.6,0,1.2,0.3,1.6,0.7l-0.5,0.3c-0.2-0.4-0.7-0.6-1.1-0.6c-0.6,0-1.4,0.3-1.4,1.1c0,1.8,3,0.6,3,2.9
					c0,0.9-0.8,1.6-1.7,1.6c0,0-0.1,0-0.1,0c-0.7,0.1-1.4-0.3-1.8-0.9L190.6,26.1z"/>
				<path class="st0" d="M201.4,21.7h-2v-0.5h4.6v0.5h-2v5.4h-0.6L201.4,21.7z"/>
				<path class="st0" d="M206.5,21.3h3.5v0.5h-3v2.1h2.8v0.5H207v2.2h3.1v0.5h-3.7L206.5,21.3L206.5,21.3z"/>
				<path class="st0" d="M212.8,26.1c0.3,0.5,0.8,0.7,1.4,0.7c0.7,0.1,1.3-0.4,1.4-1.1c0-1.6-2.9-0.6-2.9-2.9
					c0.1-0.9,0.9-1.6,1.8-1.6c0,0,0,0,0,0c0.6,0,1.2,0.3,1.6,0.7l-0.5,0.3c-0.2-0.4-0.7-0.6-1.1-0.6c-0.6,0-1.4,0.3-1.4,1.1
					c0,1.8,3,0.6,3,2.9c0,0.9-0.8,1.6-1.7,1.6c0,0-0.1,0-0.1,0c-0.8,0-1.6-0.3-2.1-0.9L212.8,26.1z"/>
				<polygon class="st1" points="222.4,36.1 215.2,36.1 210.1,36.1 204.6,36.1 200.1,36.1 198.6,36.1 194.4,42.7 190.3,36.1 
					184.3,31.5 173.7,31.5 173.7,27 184.3,27 184.3,22.5 173.7,22.5 173.7,18 184.3,18 184.3,13.4 173.7,13.4 168.7,13.4 
					168.7,13.4 168.7,29.5 160.1,13.4 157.2,13.4 154.1,13.4 152.2,13.4 152.2,36.1 157.2,36.1 157.2,19.4 166.1,36.1 168.7,36.1 
					168.7,36.1 172.2,36.1 173.7,36.1 184.3,36.1 191.4,47.5 184.3,59 190.3,59 194.4,52.5 198.6,59 204.5,59 197.4,47.6 
					201.8,40.8 210.1,40.8 210.1,59 215.2,59 215.2,40.8 222.4,40.8 				"/>
				<path class="st0" d="M196.8,21.3v5.8h-0.6v-5.8H196.8z"/>
			</g>
		</g>
		<path class="st1" d="M419,40.4V22.8c0-0.2,0.2-0.4,0.4-0.4h2.6v18.3c0,1.3,1,2.4,2.4,2.4h9.8c0.2,0,0.4,0.2,0.4,0.4v2.3h-10.2
			C421.4,45.8,419,43.4,419,40.4C419,40.5,419,40.5,419,40.4z"/>
		<path class="st1" d="M474.7,44V24.2c0-0.9,0.8-1.7,1.7-1.7h10c2.9,0,5.3,2.4,5.3,5.3c0,0,0,0,0,0v2.4c0,1.7-1.2,3.3-2.8,3.8
			c1.6,0.6,2.8,2.1,2.8,3.8v2.7c0,2.9-2.3,5.3-5.3,5.4h-9.9c-0.9,0-1.7-0.7-1.8-1.6C474.7,44.1,474.7,44.1,474.7,44z M477.6,32.6
			h8.8c1.3,0,2.4-1.1,2.4-2.4v-2.7c0-1.3-1.1-2.4-2.4-2.4h-8.2c-0.3,0-0.6,0.2-0.6,0.5c0,0,0,0,0,0V32.6z M488.8,37.6
			c0-1.3-1.1-2.4-2.4-2.4h-8.8v7.3c0,0.3,0.2,0.6,0.5,0.6c0,0,0,0,0,0h8.2c1.3,0,2.4-1.1,2.4-2.4V37.6z"/>
		<path class="st1" d="M464.6,41.8L457.2,30v-6.7h-6.8V30L443,41.8c-0.7,1.3-0.3,2.9,0.9,3.7c0.5,0.4,1.1,0.6,1.8,0.6h16.4
			c0.6,0,1.2-0.2,1.7-0.6C464.9,44.7,465.3,43.1,464.6,41.8z M450.8,34.6l2-2.8c0.3-0.3,0.7-0.4,1.1-0.4c0.4-0.1,0.8,0.1,1,0.4
			l2.9,4.1c0.2,0.4,0.1,0.8-0.3,1.1c-0.1,0-0.1,0.1-0.2,0.1c-1.1,0.3-5.9-1.3-5.9-1.3c-0.4-0.1-0.6-0.4-0.6-0.8
			C450.7,34.8,450.7,34.7,450.8,34.6z M461.3,42.6c-0.2,0.4-0.6,0.6-1,0.6h-13c-0.4,0-0.8-0.2-1-0.6c-0.2-0.3-0.2-0.7,0-1.1l2-3.3
			c0.2-0.4,0.7-0.6,1.1-0.6c2,0.2,6.9,2.8,9.4,1.8c0.6-0.3,1.3-0.1,1.6,0.4l1,1.6C461.5,41.9,461.5,42.3,461.3,42.6z"/>
		<circle class="st0" cx="452.8" cy="18.6" r="1.2"/>
		<path class="st1" d="M457.5,23.2h-7.3c-0.3,0-0.6-0.2-0.6-0.5c0,0,0,0,0,0v-0.7c0-0.3,0.2-0.6,0.5-0.6c0,0,0,0,0,0h7.3
			c0.3,0,0.6,0.2,0.6,0.5c0,0,0,0,0,0v0.7C458,22.9,457.8,23.2,457.5,23.2C457.5,23.2,457.5,23.2,457.5,23.2z"/>
		<circle class="st0" cx="454.9" cy="17" r="0.8"/>
		
			<ellipse transform="matrix(0.8527 -0.5223 0.5223 0.8527 58.6309 239.1577)" class="st0" cx="453.5" cy="15.6" rx="0.5" ry="0.5"/>
		<path class="st1" d="M496.1,22.6c0.2,0,0.4,0,0.6,0.1c0.1,0.1,0.3,0.1,0.5,0.2c0.2,0.1,0.2,0.2,0.4,0.2c0.1,0.1,0.2,0.3,0.2,0.4
			c0.1,0.1,0.1,0.3,0.1,0.5c0.1,0.2,0.1,0.4,0.1,0.6c0,0.2,0,0.4-0.1,0.6c-0.1,0.2-0.1,0.3-0.2,0.5c-0.1,0.2-0.2,0.2-0.2,0.4
			c-0.1,0.1-0.3,0.2-0.4,0.2c-0.1,0.1-0.3,0.2-0.5,0.2c-0.2,0.1-0.4,0.1-0.6,0.1c-0.2,0-0.4,0-0.6-0.1c-0.1-0.1-0.3-0.1-0.5-0.2
			c-0.2-0.1-0.2-0.2-0.4-0.2c-0.1-0.1-0.2-0.3-0.2-0.4c-0.1-0.1-0.2-0.3-0.2-0.5c-0.1-0.2-0.1-0.4-0.1-0.6c0-0.2,0-0.4,0.1-0.6
			c0.1-0.2,0.1-0.3,0.2-0.5c0.1-0.2,0.2-0.2,0.2-0.4c0.1-0.1,0.3-0.2,0.4-0.2c0.1-0.1,0.3-0.2,0.5-0.2
			C495.8,22.7,495.9,22.6,496.1,22.6z M496.1,26.2c0.2,0,0.3,0,0.5-0.1c0.2-0.1,0.2-0.1,0.4-0.2c0.1-0.1,0.2-0.1,0.3-0.2
			c0.1-0.2,0.2-0.2,0.2-0.3c0.1-0.1,0.2-0.3,0.2-0.4c0.1-0.2,0.1-0.3,0.1-0.5c0-0.2-0.1-0.4-0.2-0.6c-0.1-0.2-0.2-0.4-0.3-0.6
			c-0.2-0.2-0.4-0.3-0.6-0.3c-0.2-0.1-0.4-0.2-0.6-0.2c-0.2,0-0.3,0-0.5,0.1c-0.2,0.1-0.2,0.1-0.4,0.2s-0.2,0.2-0.3,0.2
			s-0.2,0.2-0.2,0.3s-0.2,0.2-0.2,0.4c-0.1,0.1-0.1,0.3-0.1,0.5c0,0.2,0,0.3,0.1,0.5c0.1,0.2,0.1,0.2,0.2,0.4
			c0.1,0.1,0.1,0.2,0.2,0.3c0.2,0.1,0.2,0.2,0.3,0.2s0.2,0.2,0.4,0.2C495.8,26.2,496,26.2,496.1,26.2z M496.1,23.4
			c0.2,0,0.5,0,0.6,0.2c0.2,0.2,0.2,0.2,0.2,0.5c0,0.1-0.1,0.3-0.2,0.4c-0.1,0.2-0.2,0.2-0.4,0.2l0.1,0.1l0.1,0.1l0.6,0.9h-0.4
			c-0.1,0-0.1,0-0.2-0.1l-0.6-0.8l-0.1-0.1h-0.2v0.9h-0.4v-2.3L496.1,23.4z M496.1,24.5c0.2,0,0.3-0.1,0.4-0.2
			c0.1-0.1,0.2-0.2,0.2-0.3v-0.2c0,0-0.1-0.1-0.1-0.2c-0.1,0-0.1-0.1-0.2-0.1h-0.5v0.8L496.1,24.5L496.1,24.5z"/>
		<text transform="matrix(0.97 0 0 1 421.0298 57.2598)" class="st0 st2 st3 st4">FILMES</text>
		<rect x="299.1" y="40.5" class="st0" width="14.9" height="13.9"/>
		<path class="st0" d="M313.9,16.9c-0.3-4.1-3.8-7.2-7.9-7c-3.7,0.2-6.7,3.2-7,7c0.1,2.7,1.7,5.2,4.2,6.2v2.7
			c0.1,0.9,0.8,1.6,1.7,1.6h3c0.9,0,1.6-0.7,1.7-1.6v-2.7C312.2,22.1,313.9,19.7,313.9,16.9z"/>
		<path class="st1" d="M316.1,39.7c-0.4,0-0.8,0.3-0.8,0.7c0,0,0,0.1,0,0.1v0.2l-8.7,7.4l-8.7-7.4v-0.6c0,0,0-0.1-0.1-0.1
			c0,0,0-0.1-0.1-0.1c0,0,0-0.1-0.1-0.1l-0.1-0.1h-0.1L282.3,29c-0.4-0.3-0.9-0.2-1.2,0.2c-0.3,0.3-0.2,0.8,0.1,1.1c0,0,0,0,0,0
			l14.8,10.6v15.8c0,0.4,0.4,0.8,0.8,0.8h19.1c0.4,0,0.8-0.3,0.8-0.7c0,0,0-0.1,0-0.1V40.5C316.9,40.1,316.5,39.7,316.1,39.7z
			 M315.2,41.8v13.7l-8.1-6.9L315.2,41.8z M314.6,55.9h-16.1l8.1-6.9L314.6,55.9z M305.9,48.5l-8.1,7V41.8L305.9,48.5z"/>
		<path class="st1" d="M306.5,7.3c-5.8,0-10.4,4.4-10.4,9.7c0,3.1,1.6,6.1,4.2,7.8v2c0,0.4,0.4,0.8,0.8,0.8l0,0
			c0.4,0,0.8-0.3,0.8-0.7c0,0,0-0.1,0-0.1v-2.3c0-0.2-0.1-0.5-0.3-0.6c-2.4-1.4-3.9-4-3.9-6.8c0-4.5,3.9-8.1,8.7-8.1
			s8.7,3.7,8.7,8.1c0,2.8-1.5,5.4-3.9,6.8c-0.2,0.1-0.3,0.4-0.3,0.6v4.5H303c-1.4-0.1-2.7,0.9-2.8,2.3c-0.1,1.4,0.9,2.7,2.3,2.8
			c0.2,0,0.3,0,0.5,0h6.8c0.6,0,1,0.4,1,1c0,0.5-0.5,1-1,1H303c-1.5,0-2.7,1.1-2.8,2.5c0,1.5,1.2,2.7,2.7,2.7c0,0,0,0,0.1,0
			c0.4,0,0.8-0.4,0.8-0.8c0-0.4-0.4-0.8-0.8-0.8c-0.6,0-1-0.5-1-1c0-0.6,0.5-1,1-1h6.8c1.4,0,2.7-1.1,2.7-2.5
			c-0.1-1.4-1.3-2.6-2.7-2.6H303c-0.6,0-1-0.5-1-1s0.5-1,1-1h8.7c0.4,0,0.8-0.3,0.8-0.7c0,0,0-0.1,0-0.1v-4.9
			c2.6-1.7,4.2-4.7,4.2-7.8C316.9,11.7,312.2,7.3,306.5,7.3z"/>
		<path class="st1" d="M300.6,11.7c-1.5,1.4-2.3,3.4-2.3,5.4c0,0.4,0.4,0.8,0.8,0.8l0,0c0.4,0,0.8-0.3,0.8-0.7c0,0,0-0.1,0-0.1
			c0-1.6,0.7-3.2,1.8-4.3c0.3-0.3,0.3-0.8,0-1.1c0,0,0,0,0,0c-0.2-0.3-0.6-0.4-0.9-0.2C300.7,11.5,300.7,11.6,300.6,11.7z"/>
		<path class="st1" d="M324.5,16.2h-4.2c-0.4,0-0.8,0.3-0.8,0.7c0,0,0,0.1,0,0.1c0,0.4,0.4,0.8,0.8,0.8h4.2c0.4,0,0.8-0.3,0.8-0.7
			c0,0,0-0.1,0-0.1C325.4,16.5,325,16.2,324.5,16.2z"/>
		<path class="st1" d="M288.5,17.7h4.2c0.4,0,0.8-0.3,0.8-0.7c0,0,0-0.1,0-0.1c0-0.4-0.4-0.8-0.8-0.8h-4.2c-0.4,0-0.8,0.3-0.9,0.7
			s0.3,0.8,0.7,0.9C288.4,17.7,288.4,17.7,288.5,17.7z"/>
		<path class="st1" d="M296.1,8.5c0.3,0.3,0.8,0.3,1.1,0c0,0,0,0,0,0c0.3-0.3,0.3-0.8,0-1.1c0,0,0,0,0,0l-3-2.9
			c-0.4-0.2-0.8-0.2-1.2,0c-0.3,0.2-0.4,0.7-0.1,1c0,0,0.1,0.1,0.1,0.1L296.1,8.5z"/>
		<path class="st1" d="M306.5,5.5c0.4,0,0.8-0.3,0.8-0.7c0,0,0-0.1,0-0.1V0.8c0-0.4-0.4-0.8-0.8-0.8c-0.4,0-0.8,0.3-0.8,0.7
			c0,0,0,0.1,0,0.1v3.9C305.7,5.1,306,5.5,306.5,5.5C306.5,5.5,306.5,5.5,306.5,5.5z"/>
		<path class="st1" d="M316.3,8.6c0.2,0,0.4-0.1,0.6-0.2l3-2.9c0.3-0.3,0.3-0.8,0-1.1c0,0,0,0,0,0c-0.4-0.2-0.8-0.2-1.2,0l-3,2.9
			c-0.3,0.3-0.3,0.8,0,1.1c0,0,0,0,0,0C315.8,8.5,316,8.6,316.3,8.6z"/>
		<text transform="matrix(1 0 0 1 323.21 56.8)" class="st0 st5 st6">mar</text>
		<text transform="matrix(1 0 0 1 333.45 56.8)" class="st0 st5 st6">k</text>
		<text transform="matrix(1 0 0 1 336.15 56.8)" class="st0 st5 st6">e</text>
		<text transform="matrix(1 0 0 1 339.2 56.8)" class="st0 st5 st6">ting digi</text>
		<text transform="matrix(1 0 0 1 359.37 56.8)" class="st0 st5 st6">t</text>
		<text transform="matrix(1 0 0 1 361.26 56.8)" class="st0 st5 st6">al</text>
		<text transform="matrix(1 0 0 1 360.01 36.26)" class="st1 st5 st7">da</text>
		<text transform="matrix(1 0 0 1 321.87 35.96)" class="st1 st5 st8 st9">F</text>
		<text transform="matrix(1 0 0 1 330.6899 35.96)" class="st1 st5 st8">ora</text>
		<text transform="matrix(1 0 0 1 321.87 49.91)" class="st1 st5 st8">Cai</text>
		<text transform="matrix(1 0 0 1 347.4399 49.91)" class="st1 st5 st8">x</text>
		<text transform="matrix(1 0 0 1 355.78 49.91)" class="st1 st5 st8">a</text>
	</g>
</g>
<g>
	<path class="st1" d="M18.1,30.3c-6.3,0-13.7,4.3-13.7,13.3s7.4,13.3,13.7,13.3c6.3,0,13.7-4.3,13.7-13.3
		C31.7,34.7,24.3,30.3,18.1,30.3z M18.1,52.9c-4.4,0-9.5-3.1-9.5-9.3c0-6.3,5.1-9.3,9.5-9.3s9.5,3,9.5,9.3
		C27.5,49.8,22.4,52.9,18.1,52.9z"/>
	<path class="st1" d="M47,30.9H34.2v25.4h4.3v-9.1H47c2.4,0,4.4-0.9,5.8-2.6c1.3-1.5,1.9-3.5,1.9-5.6c0-2.1-0.7-4.1-1.9-5.6
		C51.4,31.8,49.4,30.9,47,30.9z M50.4,39.1c0,1.1-0.3,2.2-1,2.9c-0.7,0.9-1.6,1.3-2.8,1.3h-8.1v-8.5h8.1c1.1,0,2.1,0.5,2.8,1.3
		C50.1,36.9,50.4,37.9,50.4,39.1z"/>
	<g>
		<path class="st1" d="M59.8,50.7c-1.6,0-2.8,1.2-2.8,2.8c0,0.8,0.3,1.5,0.8,2c0.5,0.5,1.2,0.8,2,0.8c1.6,0,2.8-1.2,2.8-2.9
			c0-0.8-0.3-1.5-0.8-2C61.3,51,60.6,50.7,59.8,50.7z"/>
		<polygon class="st1" points="61.2,47.2 62.2,30.9 57.4,30.9 58.3,47.2 		"/>
	</g>
	<path class="st1" d="M83,43.7c-0.8-0.5-1.6-1-2.6-1.3c-0.9-0.3-1.9-0.6-2.9-0.8c-1-0.2-1.9-0.4-2.9-0.6c-0.9-0.2-1.7-0.4-2.4-0.7
		c-0.7-0.3-1.2-0.6-1.6-1c-0.4-0.4-0.5-0.9-0.5-1.5c0-0.7,0.1-1.3,0.4-1.8c0.3-0.5,0.6-0.8,1.1-1.1c0.5-0.3,1-0.5,1.6-0.6
		c0.6-0.1,1.3-0.2,1.9-0.2c1.6,0,2.9,0.4,3.9,1.1l0,0c1,0.7,1.5,1.9,1.7,3.5l0,0.4h4l0-0.5c0-1.4-0.3-2.6-0.8-3.6
		c-0.5-1-1.2-1.9-2-2.6c-0.9-0.7-1.8-1.2-3-1.5c-1.1-0.3-2.3-0.5-3.6-0.5c-1.1,0-2.3,0.2-3.4,0.4c-1.1,0.3-2.1,0.8-3,1.4
		c-0.9,0.6-1.6,1.4-2.1,2.4c-0.5,1-0.8,2.1-0.8,3.4c0,1.2,0.3,2.2,0.7,3s1.1,1.5,1.9,2c0.8,0.5,1.6,0.9,2.6,1.2
		c0.9,0.3,1.9,0.5,2.9,0.8c0.9,0.2,1.8,0.4,2.9,0.6c0.9,0.2,1.7,0.4,2.4,0.8c0.7,0.3,1.2,0.7,1.6,1.1c0.4,0.4,0.6,1,0.6,1.7
		c0,0.8-0.2,1.4-0.5,1.9c-0.3,0.5-0.7,0.9-1.3,1.2c-0.5,0.3-1.2,0.5-1.8,0.6c-0.7,0.1-1.4,0.2-2.1,0.2c-0.9,0-1.7-0.1-2.5-0.3
		c-0.8-0.2-1.5-0.5-2.1-1c-0.6-0.4-1.1-1-1.4-1.7c-0.3-0.7-0.5-1.7-0.5-2.6v-0.4h-4v0.4c0,1.5,0.3,3.1,0.9,4.2
		c0.6,1.1,1.3,2.1,2.3,2.8c1,0.7,2.1,1.3,3.4,1.6c1.2,0.3,2.6,0.5,4,0.5c1.1,0,2.3-0.1,3.5-0.4c1.2-0.3,2.3-0.7,3.2-1.3
		c1-0.6,1.8-1.4,2.4-2.4c0.6-1,0.9-2.2,0.9-3.6c0-1.3-0.3-2.4-0.7-3.2C84.4,45,83.8,44.3,83,43.7z"/>
</g>
</svg>
